<mxfile host="65bd71144e">
    <diagram id="KnxmgnudgqGiJWSHdmvA" name="Page-1">
        <mxGraphModel dx="1468" dy="1133" grid="1" gridSize="10" guides="1" tooltips="1" connect="1" arrows="1" fold="1" page="1" pageScale="1" pageWidth="1200" pageHeight="1920" math="0" shadow="0">
            <root>
                <mxCell id="0"/>
                <mxCell id="1" parent="0"/>
                <mxCell id="2" value="应用层&lt;div&gt;Application Layer&lt;/div&gt;" style="rounded=0;whiteSpace=wrap;html=1;fontSize=16;fillColor=#CCFF99;" vertex="1" parent="1">
                    <mxGeometry x="201" y="200" width="160" height="60" as="geometry"/>
                </mxCell>
                <mxCell id="3" value="表示层&lt;div&gt;Presentation Layer&lt;/div&gt;" style="rounded=0;whiteSpace=wrap;html=1;fontSize=16;fillColor=#CCFF99;" vertex="1" parent="1">
                    <mxGeometry x="201" y="260" width="160" height="60" as="geometry"/>
                </mxCell>
                <mxCell id="4" value="会话层&lt;div&gt;Session Layer&lt;/div&gt;" style="rounded=0;whiteSpace=wrap;html=1;fontSize=16;fillColor=#CCFF99;" vertex="1" parent="1">
                    <mxGeometry x="201" y="320" width="160" height="60" as="geometry"/>
                </mxCell>
                <mxCell id="5" value="传输层&lt;div&gt;Transport Layer&lt;/div&gt;" style="rounded=0;whiteSpace=wrap;html=1;fontSize=16;fillColor=#99FFFF;" vertex="1" parent="1">
                    <mxGeometry x="201" y="380" width="160" height="60" as="geometry"/>
                </mxCell>
                <mxCell id="6" value="网络层&lt;div&gt;Network Layer&lt;/div&gt;" style="rounded=0;whiteSpace=wrap;html=1;fontSize=16;fillColor=#99FFFF;" vertex="1" parent="1">
                    <mxGeometry x="201" y="440" width="160" height="60" as="geometry"/>
                </mxCell>
                <mxCell id="7" value="数据链路层&lt;div&gt;Data Link Layer&lt;/div&gt;" style="rounded=0;whiteSpace=wrap;html=1;fontSize=16;fillColor=#FFE6CC;" vertex="1" parent="1">
                    <mxGeometry x="201" y="500" width="160" height="60" as="geometry"/>
                </mxCell>
                <mxCell id="8" value="物理层&lt;div&gt;Physical Layer&lt;/div&gt;" style="rounded=0;whiteSpace=wrap;html=1;fontSize=16;fillColor=#FFE6CC;" vertex="1" parent="1">
                    <mxGeometry x="201" y="560" width="160" height="60" as="geometry"/>
                </mxCell>
                <mxCell id="12" value="应用层&lt;div&gt;(DNS/HTTP/SMTP等)&lt;/div&gt;" style="rounded=0;whiteSpace=wrap;html=1;fontSize=16;fillColor=#CCFF99;" vertex="1" parent="1">
                    <mxGeometry x="520" y="200" width="160" height="180" as="geometry"/>
                </mxCell>
                <mxCell id="15" value="传输层&lt;div&gt;(TCP / UDP)&lt;/div&gt;" style="rounded=0;whiteSpace=wrap;html=1;fontSize=16;fillColor=#99FFFF;" vertex="1" parent="1">
                    <mxGeometry x="520" y="380" width="160" height="60" as="geometry"/>
                </mxCell>
                <mxCell id="16" value="&lt;font style=&quot;color: rgb(255, 0, 0);&quot;&gt;网络层/网际层&lt;/font&gt;&lt;div&gt;IP&lt;/div&gt;" style="rounded=0;whiteSpace=wrap;html=1;fontSize=16;fillColor=#99FFFF;" vertex="1" parent="1">
                    <mxGeometry x="520" y="440" width="160" height="60" as="geometry"/>
                </mxCell>
                <mxCell id="18" value="&lt;font style=&quot;color: rgb(255, 0, 0);&quot;&gt;网络接口层&lt;/font&gt;&lt;div&gt;网际接入层&lt;/div&gt;" style="rounded=0;whiteSpace=wrap;html=1;fontSize=16;fillColor=#FFE6CC;" vertex="1" parent="1">
                    <mxGeometry x="520" y="500" width="160" height="120" as="geometry"/>
                </mxCell>
                <mxCell id="19" value="应用层" style="rounded=0;whiteSpace=wrap;html=1;fontSize=16;fillColor=#CCFF99;" vertex="1" parent="1">
                    <mxGeometry x="840" y="200" width="160" height="180" as="geometry"/>
                </mxCell>
                <mxCell id="22" value="传输层" style="rounded=0;whiteSpace=wrap;html=1;fontSize=16;fillColor=#99FFFF;" vertex="1" parent="1">
                    <mxGeometry x="840" y="380" width="160" height="60" as="geometry"/>
                </mxCell>
                <mxCell id="23" value="网络层" style="rounded=0;whiteSpace=wrap;html=1;fontSize=16;fillColor=#99FFFF;" vertex="1" parent="1">
                    <mxGeometry x="840" y="440" width="160" height="60" as="geometry"/>
                </mxCell>
                <mxCell id="24" value="数据链路层" style="rounded=0;whiteSpace=wrap;html=1;fontSize=16;fillColor=#FFE6CC;" vertex="1" parent="1">
                    <mxGeometry x="840" y="500" width="160" height="60" as="geometry"/>
                </mxCell>
                <mxCell id="25" value="物理层" style="rounded=0;whiteSpace=wrap;html=1;fontSize=16;fillColor=#FFE6CC;" vertex="1" parent="1">
                    <mxGeometry x="840" y="560" width="160" height="60" as="geometry"/>
                </mxCell>
                <mxCell id="26" value="" style="endArrow=none;dashed=1;html=1;entryX=1.009;entryY=-0.001;entryDx=0;entryDy=0;entryPerimeter=0;" edge="1" parent="1" target="5">
                    <mxGeometry width="50" height="50" relative="1" as="geometry">
                        <mxPoint x="520" y="380" as="sourcePoint"/>
                        <mxPoint x="371" y="380" as="targetPoint"/>
                    </mxGeometry>
                </mxCell>
                <mxCell id="27" value="" style="endArrow=none;dashed=1;html=1;entryX=1.009;entryY=-0.001;entryDx=0;entryDy=0;entryPerimeter=0;" edge="1" parent="1">
                    <mxGeometry width="50" height="50" relative="1" as="geometry">
                        <mxPoint x="520" y="500.06" as="sourcePoint"/>
                        <mxPoint x="362" y="500.06" as="targetPoint"/>
                    </mxGeometry>
                </mxCell>
                <mxCell id="28" value="" style="endArrow=none;dashed=1;html=1;entryX=1.009;entryY=-0.001;entryDx=0;entryDy=0;entryPerimeter=0;" edge="1" parent="1">
                    <mxGeometry width="50" height="50" relative="1" as="geometry">
                        <mxPoint x="839.56" y="380" as="sourcePoint"/>
                        <mxPoint x="681.56" y="380" as="targetPoint"/>
                    </mxGeometry>
                </mxCell>
                <mxCell id="29" value="" style="endArrow=none;dashed=1;html=1;entryX=1.009;entryY=-0.001;entryDx=0;entryDy=0;entryPerimeter=0;" edge="1" parent="1">
                    <mxGeometry width="50" height="50" relative="1" as="geometry">
                        <mxPoint x="839.56" y="500" as="sourcePoint"/>
                        <mxPoint x="681.56" y="500" as="targetPoint"/>
                    </mxGeometry>
                </mxCell>
                <mxCell id="30" value="&lt;font style=&quot;font-size: 16px;&quot;&gt;&lt;b&gt;OSI 七层模型&lt;/b&gt;&lt;/font&gt;" style="text;html=1;align=center;verticalAlign=middle;resizable=0;points=[];autosize=1;strokeColor=none;fillColor=none;" vertex="1" parent="1">
                    <mxGeometry x="221" y="630" width="120" height="30" as="geometry"/>
                </mxCell>
                <mxCell id="31" value="&lt;font style=&quot;font-size: 16px;&quot;&gt;TCP/IP 模型&lt;/font&gt;" style="text;html=1;align=center;verticalAlign=middle;resizable=0;points=[];autosize=1;strokeColor=none;fillColor=none;fontStyle=1" vertex="1" parent="1">
                    <mxGeometry x="545" y="630" width="110" height="30" as="geometry"/>
                </mxCell>
                <mxCell id="32" value="&lt;font style=&quot;font-size: 16px;&quot;&gt;五层协议模型&lt;/font&gt;" style="text;html=1;align=center;verticalAlign=middle;resizable=0;points=[];autosize=1;strokeColor=none;fillColor=none;fontStyle=1" vertex="1" parent="1">
                    <mxGeometry x="860" y="630" width="120" height="30" as="geometry"/>
                </mxCell>
                <mxCell id="39" value="&lt;font style=&quot;font-size: 18px;&quot;&gt;&lt;b style=&quot;&quot;&gt;OSI 和 TCP/IP 分层模型对应关系&lt;/b&gt;&lt;/font&gt;" style="text;html=1;align=center;verticalAlign=middle;resizable=0;points=[];autosize=1;strokeColor=none;fillColor=none;" vertex="1" parent="1">
                    <mxGeometry x="455" y="130" width="290" height="40" as="geometry"/>
                </mxCell>
            </root>
        </mxGraphModel>
    </diagram>
</mxfile>